<svg width="180" height="60" viewBox="0 0 180 60" fill="none" xmlns="http://www.w3.org/2000/svg">
<g clip-path="url(#clip0_535_11266)">
<path d="M94.8614 15.0754C94.8614 17.2378 93.2305 18.9789 91.2066 18.9789C89.1826 18.9789 87.5529 17.2378 87.5529 15.0754C87.5529 12.9131 89.127 11.1719 91.2066 11.1719C93.2878 11.2319 94.8614 12.9737 94.8614 15.0754V15.0754ZM79.7951 22.9437V23.9048C79.7951 23.9048 78.053 21.5013 74.3426 21.5013C68.2157 21.5013 63.4366 26.4866 63.4366 33.3931C63.4366 40.2401 68.1595 45.2848 74.3426 45.2848C78.1092 45.2848 79.7951 42.8225 79.7951 42.8225V43.8431C79.7951 44.3236 80.1332 44.683 80.5824 44.683H85.1352V22.1001H80.5824C80.1332 22.1019 79.7951 22.5231 79.7951 22.9437V22.9437ZM79.7951 37.4172C78.9527 38.7389 77.2657 39.8801 75.2423 39.8801C71.6447 39.8801 68.8896 37.4778 68.8896 33.3931C68.8896 29.3089 71.6447 26.9066 75.2423 26.9066C77.2101 26.9066 79.0089 28.1078 79.7951 29.3689V37.4172ZM88.5087 22.1019H93.905V44.6848H88.5087V22.1019V22.1019ZM169.122 21.5007C165.412 21.5007 163.668 23.9042 163.668 23.9042V11.2319H158.272V44.6848H162.826C163.276 44.6848 163.612 44.2642 163.612 43.8436V42.8231C163.612 42.8231 165.355 45.2854 169.065 45.2854C175.193 45.2854 179.971 40.2419 179.971 33.3948C179.971 26.5478 175.193 21.5007 169.122 21.5007V21.5007ZM168.222 39.8195C166.142 39.8195 164.512 38.6795 163.668 37.3572V29.3089C164.512 28.1078 166.311 26.8466 168.222 26.8466C171.82 26.8466 174.574 29.2489 174.574 33.333C174.574 37.4172 171.82 39.8195 168.222 39.8195ZM155.462 31.2919V44.7448H150.064V31.9519C150.064 28.2289 148.94 26.7266 145.906 26.7266C144.277 26.7266 142.59 27.6278 141.52 28.9495V44.6854H136.125V22.1025H140.396C140.845 22.1025 141.183 22.5231 141.183 22.9437V23.9048C142.757 22.1625 144.837 21.5013 146.916 21.5013C149.278 21.5013 151.245 22.2231 152.82 23.6642C154.73 25.346 155.462 27.5078 155.462 31.2919V31.2919ZM123.025 21.5007C119.315 21.5007 117.572 23.9042 117.572 23.9042V11.2319H112.176V44.6848H116.729C117.178 44.6848 117.516 44.2642 117.516 43.8436V42.8231C117.516 42.8231 119.259 45.2854 122.968 45.2854C129.096 45.2854 133.874 40.2419 133.874 33.3948C133.931 26.5472 129.153 21.5007 123.025 21.5007V21.5007ZM122.125 39.8195C120.045 39.8195 118.416 38.6795 117.572 37.3572V29.3089C118.416 28.1078 120.214 26.8466 122.125 26.8466C125.724 26.8466 128.478 29.2489 128.478 33.333C128.478 37.4172 125.724 39.8195 122.125 39.8195ZM107.509 21.5007C109.139 21.5007 109.983 21.8019 109.983 21.8019V27.1466C109.983 27.1466 105.486 25.5248 102.675 28.9489V44.7442H97.2779V22.1019H101.832C102.282 22.1019 102.618 22.5225 102.618 22.9431V23.9042C103.631 22.6425 105.824 21.5007 107.509 21.5007V21.5007ZM51.4635 42.6425C51.1827 41.9219 50.9013 41.1413 50.6205 40.4801C50.1702 39.3995 49.7203 38.3778 49.3278 37.4172L49.2716 37.3572C45.3921 28.3477 41.233 19.2195 36.8476 10.2113L36.6791 9.85011C36.2178 8.91561 35.7684 7.97456 35.3307 7.02718C34.768 5.9454 34.2064 4.80542 33.3068 3.72364C31.508 1.32129 28.9219 -0.000488281 26.1678 -0.000488281C23.3565 -0.000488281 20.8271 1.32129 18.9728 3.60305C18.1293 4.68363 17.5104 5.82481 16.9488 6.90659C16.5101 7.85337 16.0606 8.79441 15.6004 9.72952L15.4314 10.0907C11.1027 19.0989 6.88681 28.2278 3.00792 37.2366L2.95121 37.356C2.5581 38.3184 2.1077 39.3389 1.65787 40.4189C1.37707 41.0801 1.09628 41.8007 0.815482 42.5813C0.0842936 44.803 -0.140914 46.9054 0.141003 49.0683C0.759312 53.5731 3.5695 57.3554 7.44896 59.0383C8.91077 59.6995 10.4287 59.9995 12.0023 59.9995C12.4522 59.9995 13.0138 59.9395 13.4642 59.8789C15.3196 59.6389 17.2307 58.9789 19.0862 57.8377C21.391 56.456 23.5834 54.4748 26.0566 51.5919C28.5299 54.4748 30.7785 56.456 33.0271 57.8377C34.8831 58.9789 36.7937 59.6389 38.6486 59.8789C39.0984 59.9401 39.6611 59.9995 40.111 59.9995C41.6851 59.9995 43.2587 59.6995 44.6638 59.0383C48.5994 57.3554 51.3534 53.5131 51.9723 49.0683C52.4187 46.9666 52.1941 44.8654 51.4635 42.6425V42.6425ZM26.1111 45.7654C23.0752 41.6813 21.1074 37.8378 20.4335 34.5954C20.1527 33.2137 20.0959 32.0125 20.265 30.9313C20.3767 29.9701 20.7148 29.1289 21.1646 28.4083C22.2328 26.7878 24.0316 25.766 26.1117 25.766C28.1924 25.766 30.0473 26.7272 31.0593 28.4083C31.5091 29.1289 31.8461 29.9707 31.9595 30.9313C32.1274 32.0131 32.0713 33.2737 31.7905 34.5954C31.1138 37.7778 29.146 41.6219 26.1111 45.7654ZM48.5398 48.5884C48.1467 51.7113 46.1789 54.4148 43.4249 55.616C42.076 56.216 40.6136 56.3966 39.1529 56.216C37.7478 56.0354 36.3416 55.5548 34.8809 54.6548C32.8569 53.4524 30.8335 51.5919 28.4721 48.8283C32.1819 43.9642 34.4305 39.5189 35.274 35.556C35.6677 33.6937 35.7244 32.0125 35.5548 30.4501C35.3307 28.9489 34.8242 27.5672 34.0374 26.366C32.2936 23.6624 29.37 22.1019 26.1106 22.1019C22.8511 22.1019 19.9275 23.7236 18.1849 26.366C17.3981 27.5672 16.8915 28.9489 16.6669 30.4501C16.4422 32.0125 16.4978 33.7537 16.9477 35.556C17.7906 39.5189 20.0954 44.0236 23.7491 48.8884C21.4443 51.6513 19.3642 53.5137 17.3402 54.7148C15.8784 55.616 14.4739 56.0966 13.0688 56.276C11.5514 56.4566 10.089 56.216 8.79622 55.676C6.04219 54.4748 4.07438 51.7713 3.68127 48.6483C3.51279 47.1472 3.62455 45.646 4.18726 43.9642C4.35517 43.363 4.63709 42.7631 4.91788 42.0425C5.31156 41.0813 5.76027 40.0595 6.21066 39.0389L6.26739 38.9195C10.1457 29.9701 14.3054 20.8413 18.6341 11.9531L18.8026 11.5919C19.253 10.6919 19.7028 9.73072 20.1521 8.82954C20.6019 7.86836 21.1074 6.96717 21.7262 6.18599C22.9067 4.74602 24.4803 3.96423 26.2234 3.96423C27.9666 3.96423 29.5402 4.74602 30.7207 6.18599C31.3395 6.96897 31.8449 7.87016 32.2948 8.82954C32.7452 9.73072 33.195 10.6919 33.6437 11.5919L33.8127 11.9531C38.0755 20.8782 42.1799 29.8887 46.1239 38.9795V39.0395C46.5743 40.0019 46.9674 41.0819 47.4172 42.0443C47.698 42.7637 47.9794 43.3637 48.1479 43.9649C48.5966 45.5248 48.765 47.0272 48.5398 48.5884V48.5884Z" fill="black"/>
</g>
<defs>
<clipPath id="clip0_535_11266">
<rect width="180" height="60" fill="white"/>
</clipPath>
</defs>
</svg>
