<svg width="24" height="24" viewBox="0 0 24 24" fill="none" xmlns="http://www.w3.org/2000/svg">
<path d="M5.19531 7H19.8723C20.1697 7.00001 20.4638 7.05857 20.7356 7.17191C21.0075 7.28524 21.251 7.45083 21.4506 7.65801C21.6501 7.86519 21.8012 8.10936 21.8942 8.37478C21.9872 8.64019 22.0199 8.92097 21.9903 9.199L21.3517 15.199C21.2992 15.6925 21.0534 16.1501 20.662 16.4829C20.2706 16.8157 19.7616 17 19.2337 17H9.06945C8.57717 17.0002 8.10004 16.84 7.7193 16.5469C7.33855 16.2537 7.07773 15.8456 6.98125 15.392L5.19531 7Z" stroke="black" stroke-width="2" stroke-linejoin="round"/>
<path d="M5.19297 7L4.33087 3.757C4.27321 3.54075 4.1403 3.34881 3.95325 3.21166C3.76621 3.0745 3.53574 3.00001 3.29847 3H2M8.38594 21H10.5146M16.9005 21H19.0292" stroke="black" stroke-width="2" stroke-linecap="round" stroke-linejoin="round"/>
</svg>
