<svg width="107" height="60" viewBox="0 0 107 60" fill="none" xmlns="http://www.w3.org/2000/svg">
<g clip-path="url(#clip0_535_11270)">
<path fill-rule="evenodd" clip-rule="evenodd" d="M97.3675 49.8355C97.3675 55.4499 93.2614 60.0002 87.5436 60.0002C81.8257 60.0002 77.7246 55.4499 77.7246 49.8355C77.7246 44.2308 81.8207 39.6779 87.5385 39.6779C93.2564 39.6779 97.3608 44.2308 97.3608 49.8364L97.3675 49.8355ZM52.7477 44.4884C52.6766 44.4637 50.7013 43.8885 49.0779 43.8885C47.1987 43.8885 46.1772 44.5529 46.1772 45.497C46.1772 46.6917 47.5548 47.1073 48.3281 47.3649L49.6213 47.7999C52.6674 48.8217 54.0542 51.024 54.0542 53.4143C54.0542 58.344 49.9473 60.0002 46.3569 60.0002C43.86 60.0002 41.5235 59.5149 41.2928 59.4637V54.9479C41.7066 55.0582 43.6736 55.6784 45.7233 55.6784C48.0572 55.6784 49.1314 54.9549 49.1314 53.8458C49.1314 52.8505 48.2035 52.2752 47.0399 51.8905C46.7557 51.7846 46.3277 51.6434 46.0368 51.5464C43.4236 50.6729 41.2468 49.0493 41.2468 45.8023C41.2468 42.1317 43.8483 39.6629 48.1734 39.6629C50.4572 39.6629 52.6072 40.2479 52.746 40.2893V44.4805L52.7477 44.4884ZM34.9531 59.6499H30.2609V40.0264H34.9539L34.9531 59.6499ZM104.313 57.0664V57.3752H103.486V59.6499H103.143V57.3734H102.311V57.0664H104.317H104.313ZM104.489 57.0664H105.021L105.753 59.184H105.765L106.474 57.0664H107.001V59.6499H106.65V57.5296H106.641L105.897 59.6499H105.571L104.852 57.5305H104.836V59.657H104.492V57.0717L104.489 57.0664ZM72.7834 45.6487C72.5911 45.5446 71.0781 44.5987 68.8344 44.5987C65.8025 44.5987 63.6984 46.8293 63.6984 49.8355C63.6984 52.7526 65.7114 55.074 68.8344 55.074C71.0413 55.074 72.5769 54.1493 72.7826 54.0329V59.3005C72.1916 59.477 70.5907 60.0002 68.5068 60.0002C63.2303 60.0002 58.5992 56.1593 58.5992 49.8355C58.5992 43.9749 62.7906 39.6779 68.5093 39.6779C70.7095 39.6779 72.3404 40.2426 72.7842 40.382L72.7834 45.6487ZM23.8108 45.6487C23.6219 45.5446 22.1139 44.5987 19.8694 44.5987C16.8266 44.5987 14.7284 46.8293 14.7284 49.8355C14.7284 52.7526 16.743 55.074 19.8694 55.074C22.0763 55.074 23.606 54.1493 23.8067 54.0329V59.3005C23.2215 59.477 21.6249 60.0002 19.5267 60.0002C14.2519 60.0002 9.62582 56.1593 9.62582 49.8355C9.62582 43.9749 13.8164 39.6779 19.5258 39.6779C21.7327 39.6779 23.3628 40.2426 23.8058 40.382V45.6496L23.8108 45.6487ZM87.5427 44.6737C84.7591 44.6737 82.6918 46.9855 82.6918 49.8355C82.6918 52.6926 84.7649 55.0026 87.5486 55.0026C90.3306 55.0026 92.4029 52.6926 92.4029 49.8364C92.4029 46.9864 90.3297 44.6746 87.5502 44.6746L87.5427 44.6737ZM81.4237 2.92256C81.4237 1.57079 80.3838 0.473145 79.1014 0.473145C77.8174 0.473145 76.78 1.57079 76.78 2.92256V28.9829C76.78 30.3417 77.8166 31.4411 79.0956 31.4411C80.3746 31.4411 81.4161 30.3426 81.4161 28.9829V2.92256H81.4237ZM30.2459 2.92256C30.2459 1.57079 29.1993 0.473145 27.9161 0.473145C26.6338 0.473145 25.5872 1.57079 25.5872 2.92256V28.9829C25.5872 30.3417 26.6321 31.4411 27.9111 31.4411C29.1926 31.4411 30.2392 30.3426 30.2392 28.9829V2.92256H30.2459ZM107 18.9373C107 17.5829 105.958 16.4861 104.679 16.4861C103.395 16.4861 102.353 17.5829 102.353 18.9364V24.0893C102.353 25.457 103.398 26.5511 104.685 26.5511C105.964 26.5511 107.009 25.457 107.009 24.0964V18.9434L107 18.9373ZM55.8222 18.9373C55.8222 17.5829 54.7823 16.4861 53.5067 16.4861C52.2244 16.4861 51.1778 17.5829 51.1778 18.9364V24.0893C51.1778 25.457 52.2244 26.5511 53.5067 26.5511C54.7823 26.5511 55.8222 25.457 55.8222 24.0964V18.9434V18.9373ZM4.65784 18.9373C4.65784 17.5829 3.61292 16.4861 2.32892 16.4861C1.04743 16.4861 0 17.5829 0 18.9355V24.0884C0 25.4499 1.04743 26.5467 2.32892 26.5467C3.61292 26.5467 4.65784 25.4499 4.65784 24.0884V18.9373ZM17.4527 12.1749C17.4527 10.8223 16.4078 9.72197 15.1238 9.72197C13.8406 9.72197 12.794 10.8223 12.794 12.1749V24.0867C12.794 25.4482 13.8406 26.5449 15.1238 26.5449C16.4069 26.5449 17.4527 25.4482 17.4527 24.0867V12.1749ZM43.0408 12.1749C43.0408 10.8223 41.9958 9.72197 40.7118 9.72197C39.4295 9.72197 38.3829 10.8223 38.3829 12.1749V24.0867C38.3829 25.4482 39.4295 26.5449 40.7118 26.5449C41.9958 26.5449 43.0416 25.4482 43.0416 24.0867L43.0408 12.1749ZM68.6221 12.1749C68.6221 10.8223 67.5822 9.72197 66.2999 9.72197C65.0209 9.72197 63.9785 10.8223 63.9785 12.1749V24.0867C63.9785 25.4482 65.0201 26.5449 66.2999 26.5449C67.5822 26.5449 68.6221 25.4482 68.6221 24.0867V12.1749ZM94.2269 12.1749C94.2269 10.8223 93.187 9.72197 91.8746 9.72197C90.5914 9.72197 89.5523 10.8223 89.5523 12.1749V24.0867C89.5523 25.4482 90.5914 26.5449 91.8746 26.5449C93.187 26.5449 94.226 25.4482 94.226 24.0867L94.2269 12.1749Z" fill="black"/>
</g>
<defs>
<clipPath id="clip0_535_11270">
<rect width="107" height="60" fill="white"/>
</clipPath>
</defs>
</svg>
