<svg width="178" height="80" viewBox="0 0 178 80" fill="none" xmlns="http://www.w3.org/2000/svg">
<path d="M44.9153 41.1028V0H53.8153V25.2799C58.1912 19.4069 64.2135 17.7109 70.1468 17.7109C80.0852 17.7109 91.1212 25.2632 91.1212 41.5622C91.1212 43.5088 91.0099 45.3801 90.6762 47.1429C92.4562 39.1813 100.125 36.2406 112.155 35.9148C115.937 35.7644 120.276 35.7644 123.725 35.7644V34.6366C123.725 27.2431 119.601 24.2439 112.377 24.2439C107.037 24.2439 103.144 26.7502 102.699 31.0109H93.2423C94.251 20.2339 104.367 17.477 113.163 17.477C121.055 17.477 127.96 19.7327 131.075 25.9983L127.841 18.9808H138.299L153.54 53.4419L168.781 18.9724H178L150.41 80H140.427L148.363 62.9574L131.082 26.3659C132.046 28.4962 132.566 31.0025 132.566 34.1353V54.6867C132.566 57.5773 132.64 60.4511 132.862 63.0827H124.6C124.376 60.9617 124.262 58.8277 124.259 56.6917C119.787 62.8237 114.469 64.7118 107.052 64.7118C96.0755 64.7118 90.2015 58.1955 90.2015 50.5514C90.2015 49.2982 90.3128 48.1788 90.4759 47.1679C88.2509 57.5773 80.3892 64.5948 69.954 64.5948C63.5015 64.5948 57.3902 61.9632 53.6373 56.8254C53.6373 58.8304 53.5261 60.9524 53.3407 62.9574H44.589C44.7373 59.6993 44.8857 55.8145 44.8857 52.5564V43.7845H9.06317C9.54525 52.9323 15.13 58.3208 22.8063 58.3208C28.1314 58.3208 32.8558 55.8145 34.4356 50.5514H43.6322C41.8522 61.3283 31.6914 64.9624 22.9397 64.9624C7.04583 65.1378 0 55.2214 0 41.9382C0 27.2849 7.28317 17.6274 23.1103 17.6274C35.6297 17.6274 44.8412 25.0292 44.9153 41.0693V41.1111V41.1028ZM112.681 42.6316C104.56 42.9156 99.5539 44.5781 99.5539 50.5681C99.5539 54.4528 102.224 58.6717 109.233 58.6717C118.578 58.6717 123.584 52.9073 123.584 43.5171V42.4311C120.246 42.4311 116.241 42.4812 112.578 42.6149H112.667L112.681 42.6316ZM67.7364 58.2957C75.9689 58.2957 81.6501 51.5622 81.6501 41.4202C81.6501 31.2782 75.9541 24.5447 67.6103 24.5447C59.3778 24.5447 53.5928 31.2782 53.5928 41.4202C53.5928 51.5622 59.2666 58.2957 67.4991 58.2957H67.7216H67.7364ZM35.4739 37.2932C35.1476 27.8947 29.1401 24.3776 22.6802 24.3776C15.6788 24.3776 10.1163 28.3375 9.21892 37.2932H35.4739Z" fill="black"/>
</svg>
