<svg width="219" height="30" viewBox="0 0 219 30" fill="none" xmlns="http://www.w3.org/2000/svg">
<path d="M5.37145 29H0.945312L10.8906 1.36368H15.7081L25.6534 29H21.2273L13.4141 6.38357H13.1982L5.37145 29ZM6.11364 18.1776H20.4716V21.6861H6.11364V18.1776Z" fill="black"/>
<path d="M29.6444 29V1.36368H39.4952C41.6363 1.36368 43.4131 1.73253 44.8255 2.47021C46.2469 3.2079 47.3084 4.22897 48.0101 5.53343C48.7118 6.82888 49.0627 8.32675 49.0627 10.027C49.0627 11.7183 48.7073 13.2072 47.9966 14.4937C47.2949 15.7711 46.2334 16.7652 44.812 17.4759C43.3996 18.1866 41.6228 18.542 39.4817 18.542H32.0194V14.9525H39.1039C40.4533 14.9525 41.5508 14.759 42.3965 14.3722C43.2511 13.9854 43.8764 13.4231 44.2722 12.6854C44.668 11.9477 44.8659 11.0616 44.8659 10.027C44.8659 8.98347 44.6635 8.07935 44.2587 7.31468C43.8629 6.55 43.2376 5.96524 42.383 5.56042C41.5373 5.14659 40.4263 4.93968 39.0499 4.93968H33.8141V29H29.6444ZM43.2871 16.5313L50.1152 29H45.3652L38.6721 16.5313H43.2871Z" fill="black"/>
<path d="M66.025 13.4276V16.9361H53.7722V13.4276H66.025Z" fill="black"/>
<path d="M74.0609 29H69.6348L79.5801 1.36368H84.3976L94.3429 29H89.9167L82.1035 6.38357H81.8876L74.0609 29ZM74.8031 18.1776H89.161V21.6861H74.8031V18.1776Z" fill="black"/>
<path d="M98.3338 29V1.36368H108.185C110.326 1.36368 112.103 1.73253 113.515 2.47021C114.936 3.2079 115.998 4.22897 116.7 5.53343C117.401 6.82888 117.752 8.32675 117.752 10.027C117.752 11.7183 117.397 13.2072 116.686 14.4937C115.984 15.7711 114.923 16.7652 113.501 17.4759C112.089 18.1866 110.312 18.542 108.171 18.542H100.709V14.9525H107.793C109.143 14.9525 110.24 14.759 111.086 14.3722C111.941 13.9854 112.566 13.4231 112.962 12.6854C113.357 11.9477 113.555 11.0616 113.555 10.027C113.555 8.98347 113.353 8.07935 112.948 7.31468C112.552 6.55 111.927 5.96524 111.072 5.56042C110.227 5.14659 109.116 4.93968 107.739 4.93968H102.504V29H98.3338ZM111.977 16.5313L118.805 29H114.055L107.362 16.5313H111.977Z" fill="black"/>
<path d="M137.899 8.62362C137.755 7.34616 137.161 6.35658 136.118 5.65487C135.074 4.94417 133.761 4.58882 132.178 4.58882C131.044 4.58882 130.063 4.76875 129.236 5.1286C128.408 5.47945 127.765 5.96524 127.306 6.58598C126.856 7.19772 126.631 7.89493 126.631 8.6776C126.631 9.33433 126.784 9.90109 127.09 10.3779C127.405 10.8547 127.814 11.255 128.318 11.5789C128.831 11.8937 129.38 12.1591 129.964 12.375C130.549 12.582 131.112 12.7529 131.651 12.8878L134.35 13.5895C135.232 13.8054 136.136 14.0978 137.062 14.4667C137.989 14.8355 138.848 15.3213 139.64 15.9241C140.432 16.5268 141.07 17.2735 141.556 18.1641C142.051 19.0547 142.298 20.1208 142.298 21.3623C142.298 22.9276 141.893 24.3175 141.084 25.532C140.283 26.7465 139.118 27.7046 137.589 28.4063C136.068 29.108 134.229 29.4589 132.07 29.4589C130 29.4589 128.21 29.1305 126.699 28.4738C125.187 27.817 124.004 26.8859 123.15 25.6804C122.295 24.466 121.823 23.0266 121.733 21.3623H125.916C125.997 22.3608 126.321 23.193 126.888 23.8587C127.464 24.5154 128.197 25.0057 129.087 25.3296C129.987 25.6445 130.972 25.8019 132.043 25.8019C133.221 25.8019 134.269 25.6175 135.187 25.2486C136.113 24.8708 136.842 24.349 137.373 23.6833C137.904 23.0086 138.169 22.2214 138.169 21.3218C138.169 20.5031 137.935 19.8329 137.467 19.3111C137.009 18.7893 136.383 18.3575 135.592 18.0157C134.809 17.6738 133.923 17.3724 132.933 17.1116L129.668 16.2209C127.455 15.6182 125.7 14.7321 124.405 13.5625C123.118 12.393 122.475 10.8457 122.475 8.9205C122.475 7.32817 122.907 5.93825 123.771 4.75075C124.634 3.56325 125.804 2.64114 127.279 1.98442C128.755 1.3187 130.419 0.98584 132.272 0.98584C134.143 0.98584 135.794 1.3142 137.224 1.97093C138.664 2.62765 139.797 3.53177 140.625 4.68328C141.453 5.8258 141.884 7.13925 141.92 8.62362H137.899Z" fill="black"/>
<path d="M147.281 29V1.36368H151.451V13.3736H165.229V1.36368H169.412V29H165.229V16.9496H151.451V29H147.281Z" fill="black"/>
<path d="M177.819 29H173.393L183.338 1.36368H188.155L198.101 29H193.675L185.861 6.38357H185.645L177.819 29ZM178.561 18.1776H192.919V21.6861H178.561V18.1776Z" fill="black"/>
<path d="M202.092 29V1.36368H206.261V25.4106H218.784V29H202.092Z" fill="black"/>
</svg>
