<svg width="223" height="47" viewBox="0 0 223 47" fill="none" xmlns="http://www.w3.org/2000/svg">
<g clip-path="url(#clip0_535_11279)">
<path d="M78.7283 27.0705L77.399 30.7868H77.2882C77.0667 29.9488 76.6605 28.6736 75.9958 27.1434L68.8694 9.47285H61.8906V37.6364H66.5062V20.2574C66.5062 19.1643 66.5062 17.9256 66.4693 16.3953C66.4324 15.6302 66.3585 15.0473 66.3216 14.6101H66.4324C66.6539 15.7031 66.9124 16.5046 67.097 17.0147L75.6635 37.5636H78.9129L87.4056 16.8325C87.5902 16.3589 87.7748 15.4116 87.9594 14.6101H88.0702C87.9594 16.6868 87.8856 18.5449 87.8487 19.6744V37.5271H92.7596V9.39999H86.0393L78.7283 27.0705ZM97.4121 17.3426H102.212V37.5271H97.4121V17.3426ZM99.8492 8.81704C99.0368 8.81704 98.3722 9.10851 97.8183 9.61859C97.2644 10.1287 96.969 10.7845 96.969 11.586C96.969 12.3511 97.2644 13.007 97.8183 13.517C98.3722 14.0271 99.0368 14.2822 99.8492 14.2822C100.662 14.2822 101.363 13.9907 101.88 13.517C102.434 13.007 102.729 12.3511 102.729 11.586C102.729 10.8209 102.434 10.1651 101.88 9.61859C101.4 9.10851 100.698 8.81704 99.8492 8.81704M119.235 17.1605C118.348 16.9783 117.425 16.869 116.539 16.869C114.361 16.869 112.367 17.3426 110.705 18.2899C109.043 19.2372 107.714 20.5488 106.865 22.1884C105.979 23.8643 105.536 25.7953 105.536 28.0178C105.536 29.9488 105.979 31.6612 106.828 33.2279C107.677 34.7581 108.859 35.9969 110.447 36.8349C111.96 37.6729 113.733 38.1101 115.727 38.1101C118.016 38.1101 119.973 37.6364 121.524 36.762L121.561 36.7256V32.3535L121.376 32.4992C120.675 33.0093 119.862 33.4465 119.05 33.7015C118.201 33.993 117.425 34.1387 116.761 34.1387C114.841 34.1387 113.327 33.5922 112.256 32.3899C111.148 31.224 110.594 29.6209 110.594 27.617C110.594 25.5403 111.148 23.9008 112.293 22.6984C113.437 21.4961 114.951 20.8767 116.798 20.8767C118.348 20.8767 119.936 21.3868 121.376 22.407L121.561 22.5527V17.9256L121.524 17.8891C120.896 17.6341 120.195 17.3426 119.235 17.1605M135.075 17.0147C133.894 17.0147 132.786 17.3791 131.826 18.1442C131.014 18.8 130.46 19.7473 129.98 20.8767H129.943V17.3426H125.143V37.5271H129.943V27.2163C129.943 25.4674 130.312 24.0101 131.124 22.9535C131.937 21.8605 132.971 21.3139 134.226 21.3139C134.669 21.3139 135.112 21.4232 135.666 21.4961C136.183 21.6418 136.552 21.7876 136.811 21.9698L136.995 22.1155V17.3791L136.885 17.3426C136.552 17.124 135.888 17.0147 135.075 17.0147M148.147 16.9054C144.786 16.9054 142.091 17.8891 140.208 19.8201C138.288 21.7512 137.365 24.4108 137.365 27.7628C137.365 30.8961 138.325 33.4465 140.171 35.3046C142.017 37.1263 144.528 38.0736 147.667 38.0736C150.953 38.0736 153.575 37.0899 155.458 35.1225C157.378 33.155 158.301 30.5318 158.301 27.2891C158.301 24.0829 157.415 21.5325 155.605 19.6744C153.87 17.8163 151.322 16.9054 148.147 16.9054M151.987 32.4263C151.101 33.5558 149.697 34.1023 147.962 34.1023C146.227 34.1023 144.823 33.5558 143.826 32.3535C142.829 31.224 142.349 29.5845 142.349 27.5077C142.349 25.3581 142.866 23.7186 143.826 22.5527C144.823 21.3868 146.19 20.8039 147.925 20.8039C149.624 20.8039 150.953 21.3504 151.913 22.4798C152.873 23.6093 153.39 25.2488 153.39 27.3984C153.316 29.5845 152.91 31.2969 151.987 32.4263M169.009 25.7225C167.495 25.1031 166.535 24.6294 166.092 24.2287C165.723 23.8643 165.538 23.3542 165.538 22.6984C165.538 22.1519 165.76 21.6054 166.314 21.2411C166.867 20.8767 167.495 20.6946 168.418 20.6946C169.231 20.6946 170.08 20.8403 170.892 21.0589C171.705 21.2775 172.443 21.6054 173.034 22.0426L173.218 22.1884V17.7434L173.108 17.707C172.554 17.4884 171.815 17.2698 170.929 17.0876C170.043 16.9418 169.231 16.869 168.566 16.869C166.277 16.869 164.393 17.4155 162.916 18.6178C161.439 19.7473 160.738 21.2775 160.738 23.0628C160.738 24.0101 160.886 24.848 161.218 25.5403C161.55 26.2325 162.03 26.8884 162.695 27.4349C163.36 27.945 164.32 28.5279 165.649 29.0744C166.757 29.5481 167.606 29.9124 168.123 30.2039C168.64 30.4953 168.972 30.8232 169.231 31.0783C169.415 31.3698 169.526 31.7341 169.526 32.2077C169.526 33.5558 168.492 34.2116 166.387 34.2116C165.575 34.2116 164.726 34.0659 163.729 33.738C162.732 33.4101 161.809 32.9364 161.033 32.3899L160.849 32.2442V36.8713L160.959 36.9077C161.661 37.2356 162.51 37.4543 163.544 37.7093C164.578 37.8915 165.501 38.0372 166.314 38.0372C168.787 38.0372 170.818 37.4907 172.258 36.2884C173.735 35.1225 174.511 33.6287 174.511 31.6977C174.511 30.3496 174.142 29.1473 173.329 28.2364C172.258 27.362 170.929 26.4512 169.009 25.7225M187.176 16.9054C183.816 16.9054 181.12 17.8891 179.237 19.8201C177.354 21.7512 176.394 24.4108 176.394 27.7628C176.394 30.8961 177.354 33.4465 179.2 35.3046C181.046 37.1263 183.557 38.0736 186.696 38.0736C189.982 38.0736 192.604 37.0899 194.487 35.1225C196.407 33.155 197.33 30.5318 197.33 27.2891C197.33 24.0829 196.444 21.5325 194.635 19.6744C192.899 17.8163 190.351 16.9054 187.176 16.9054M190.979 32.4263C190.093 33.5558 188.69 34.1023 186.954 34.1023C185.182 34.1023 183.816 33.5558 182.819 32.3535C181.822 31.224 181.342 29.5845 181.342 27.5077C181.342 25.3581 181.859 23.7186 182.819 22.5527C183.816 21.3868 185.182 20.8039 186.918 20.8039C188.579 20.8039 189.945 21.3504 190.905 22.4798C191.865 23.6093 192.382 25.2488 192.382 27.3984C192.382 29.5845 191.902 31.2969 190.979 32.4263M222.993 21.2411V17.3426H218.156V11.3674L218.008 11.4039L213.429 12.7519L213.319 12.7884V17.3426H206.081V14.7922C206.081 13.6263 206.377 12.7155 206.894 12.1325C207.411 11.5496 208.186 11.2581 209.146 11.2581C209.811 11.2581 210.512 11.4039 211.288 11.7318L211.472 11.8411V7.72402L211.362 7.68758C210.697 7.46898 209.811 7.32324 208.666 7.32324C207.226 7.32324 205.971 7.65115 204.826 8.19766C203.681 8.81704 202.832 9.65503 202.204 10.7845C201.577 11.8775 201.244 13.1163 201.244 14.5372V17.3426H197.884V21.2046H201.244V37.5271H206.081V21.2411H213.319V31.6248C213.319 35.8876 215.349 38.0372 219.411 38.0372C220.076 38.0372 220.777 37.9279 221.442 37.8186C222.144 37.6729 222.661 37.4907 222.956 37.345L222.993 37.3085V33.4101L222.808 33.5558C222.513 33.738 222.254 33.8837 221.811 33.993C221.442 34.1023 221.11 34.1387 220.851 34.1387C219.891 34.1387 219.227 33.9201 218.747 33.3736C218.303 32.8636 218.082 32.0256 218.082 30.7868V21.2411H222.993V21.2411Z" fill="black"/>
<path d="M0.0078125 0H22.6426V22.3341H0.0078125V0Z" fill="black"/>
<path d="M25.0078 0H47.6426V22.3341H25.0078V0Z" fill="black"/>
<path d="M0.0078125 24.666H22.6426V47.0001H0.0078125V24.666Z" fill="black"/>
<path d="M25.0078 24.666H47.6426V47.0001H25.0078V24.666Z" fill="black"/>
</g>
<defs>
<clipPath id="clip0_535_11279">
<rect width="223" height="47" fill="white"/>
</clipPath>
</defs>
</svg>
