<svg width="190" height="40" viewBox="0 0 190 40" fill="none" xmlns="http://www.w3.org/2000/svg">
<path fill-rule="evenodd" clip-rule="evenodd" d="M31.5724 0.96459V22.9856C31.5724 30.339 28.3742 33.3928 20.8728 33.3928C13.3709 33.3928 10.1727 30.339 10.1727 22.9856V0H2.94773C2.31634 0 2 0.321967 2 0.96459V23.3469C2 35.6439 9.69913 39.9436 20.8728 39.9436C32.0459 39.9436 39.7451 35.6439 39.7451 23.3469V0H32.5195C31.8881 0 31.5724 0.321967 31.5724 0.96459Z" fill="black"/>
<path fill-rule="evenodd" clip-rule="evenodd" d="M136.311 6.38951C136.903 6.38951 137.179 6.18885 137.376 5.74623L139.47 0.481967C139.588 0.161311 139.47 0 139.153 0H110.055C107.33 0 106.305 0.843934 106.305 2.73246V36.9292C106.305 38.537 107.093 39.2603 109.187 39.2603H136.311C136.903 39.2603 137.179 39.059 137.376 38.6177L139.47 33.3528C139.588 33.0315 139.47 32.8708 139.153 32.8708H114.32V25.9187C114.32 23.5075 115.622 22.4223 119.135 22.4223H129.915C130.507 22.4223 130.783 22.2223 130.981 21.7803L132.995 16.7167C133.112 16.3948 132.995 16.2348 132.678 16.2348H114.32V6.38951H136.311Z" fill="black"/>
<path fill-rule="evenodd" clip-rule="evenodd" d="M77.5019 32.9515H63.2447V25.758C63.2447 23.3469 64.5474 22.2623 68.062 22.2623H77.5019C82.0422 22.2623 83.3056 24.0302 83.3056 27.6472C83.3056 31.2636 82.0422 32.9515 77.5019 32.9515ZM63.2447 6.30885H76.0014C80.2652 6.30885 81.4501 7.94361 81.4501 11.3318C81.4501 14.7207 80.2652 16.3554 76.0014 16.3554H63.2447V6.30885ZM85.0825 18.5652C88.2408 16.8774 89.5435 13.7029 89.5435 9.9659C89.5435 1.2859 82.5949 0 75.4093 0H58.9847C56.2601 0 55.2344 0.843934 55.2344 2.73246V36.9292C55.2344 38.537 56.0236 39.2603 58.1162 39.2603H78.3311C85.951 39.2603 91.399 36.2466 91.399 28.4105C91.399 23.7089 89.4249 19.7305 85.0825 18.5652Z" fill="black"/>
<path fill-rule="evenodd" clip-rule="evenodd" d="M174.822 18.2033H161.398V6.30951H174.822C179.836 6.30951 180.941 8.27803 180.941 12.2564C180.941 16.2748 179.836 18.2033 174.822 18.2033ZM189.904 38.577L181.258 23.4675C185.561 22.3429 189.035 19.4498 189.035 12.0957C189.035 2.57246 183.231 0 173.637 0H157.134C154.41 0 153.383 0.843934 153.383 2.73246V38.2957C153.383 38.9384 153.699 39.2603 154.331 39.2603H161.398V27.8079C161.398 25.3967 162.7 24.3115 166.215 24.3115H173.321L181.138 38.6177C181.375 39.019 181.613 39.2603 182.205 39.2603H189.549C190.062 39.2603 190.062 38.8177 189.904 38.577Z" fill="black"/>
</svg>
