<svg width="24" height="24" viewBox="0 0 24 24" fill="none" xmlns="http://www.w3.org/2000/svg">
<path d="M2 11.9311C2 11.8769 2 11.8153 2.00223 11.7439C2.00446 11.5445 2.00893 11.3204 2.01339 11.0816C2.03125 10.3946 2.0625 9.71006 2.11161 9.06494C2.17857 8.17605 2.27679 7.4349 2.41071 6.87842C2.55205 6.29769 2.82908 5.76805 3.21413 5.34244C3.59917 4.91682 4.07875 4.61015 4.60491 4.45306C5.23661 4.26593 6.47321 4.1502 8.21429 4.07879C9.04241 4.04432 9.92857 4.02216 10.8147 4.00985C11.125 4.00492 11.4129 4.00246 11.6719 4H12.3281C12.5871 4.00246 12.875 4.00492 13.1853 4.00985C14.0714 4.02216 14.9576 4.04432 15.7857 4.07879C17.5268 4.15266 18.7656 4.26839 19.3951 4.45306C19.9214 4.60976 20.4012 4.91631 20.7863 5.34198C21.1714 5.76765 21.4483 6.2975 21.5893 6.87842C21.7254 7.4349 21.8214 8.17605 21.8884 9.06494C21.9375 9.71006 21.9688 10.3946 21.9866 11.0816C21.9933 11.3204 21.9955 11.5445 21.9978 11.7439C21.9978 11.8153 22 11.8769 22 11.9311V12.0689C22 12.1231 22 12.1847 21.9978 12.2561C21.9955 12.4555 21.9911 12.6796 21.9866 12.9184C21.9688 13.6054 21.9375 14.2899 21.8884 14.9351C21.8214 15.8239 21.7232 16.5651 21.5893 17.1216C21.3036 18.301 20.4643 19.2318 19.3951 19.5469C18.7656 19.7341 17.5268 19.8498 15.7857 19.9212C14.9576 19.9557 14.0714 19.9778 13.1853 19.9901C12.875 19.9951 12.5871 19.9975 12.3281 20H11.6719C11.4129 19.9975 11.125 19.9951 10.8147 19.9901C9.92857 19.9778 9.04241 19.9557 8.21429 19.9212C6.47321 19.8473 5.23437 19.7316 4.60491 19.5469C3.53571 19.2318 2.69643 18.3035 2.41071 17.1216C2.27455 16.5651 2.17857 15.8239 2.11161 14.9351C2.0625 14.2899 2.03125 13.6054 2.01339 12.9184C2.0067 12.6796 2.00446 12.4555 2.00223 12.2561C2.00223 12.1847 2 12.1231 2 12.0689V11.9311V11.9311ZM3.60714 12.0591C3.60714 12.1108 3.60714 12.1674 3.60937 12.2339C3.61161 12.426 3.61607 12.6377 3.62053 12.8667C3.63616 13.5217 3.66741 14.1767 3.71429 14.7849C3.77455 15.5777 3.85937 16.2278 3.96429 16.6636C4.10268 17.2324 4.50893 17.683 5.02232 17.8332C5.49107 17.9711 6.67187 18.0819 8.27679 18.1484C9.08929 18.1828 9.96429 18.205 10.8371 18.2173C11.1429 18.2222 11.4263 18.2247 11.6808 18.2247H12.3192L13.1629 18.2173C14.0357 18.205 14.9085 18.1828 15.7232 18.1484C17.3281 18.0794 18.5112 17.9711 18.9777 17.8332C19.4911 17.6805 19.8973 17.2324 20.0357 16.6636C20.1406 16.2278 20.2254 15.5777 20.2857 14.7849C20.3326 14.1767 20.3616 13.5217 20.3795 12.8667C20.3862 12.6377 20.3884 12.4235 20.3906 12.2339C20.3906 12.1674 20.3929 12.1083 20.3929 12.0591V11.9409C20.3929 11.8892 20.3929 11.8326 20.3906 11.7661C20.3884 11.574 20.3839 11.3623 20.3795 11.1333C20.3638 10.4783 20.3326 9.82333 20.2857 9.21514C20.2254 8.42228 20.1406 7.77224 20.0357 7.33641C19.8973 6.76762 19.4911 6.31702 18.9777 6.16682C18.5089 6.02893 17.3281 5.91813 15.7232 5.85165C14.9107 5.81717 14.0357 5.79501 13.1629 5.7827C12.8571 5.77778 12.5737 5.77532 12.3192 5.77532H11.6808L10.8371 5.7827C9.96429 5.79501 9.09152 5.81717 8.27679 5.85165C6.67187 5.92059 5.48884 6.02893 5.02232 6.16682C4.50893 6.31948 4.10268 6.76762 3.96429 7.33641C3.85937 7.77224 3.77455 8.42228 3.71429 9.21514C3.66741 9.82333 3.63839 10.4783 3.62053 11.1333C3.61384 11.3623 3.61161 11.5765 3.60937 11.7661C3.60937 11.8326 3.60714 11.8917 3.60714 11.9409V12.0591ZM13.9866 15.2995L8.80804 11.9754L13.9866 8.70052V15.2995Z" fill="black"/>
</svg>
